<?xml version="1.0" encoding="UTF-8" standalone="no"?>
<!-- Created with Inkscape (http://www.inkscape.org/) -->

<svg
   xmlns:dc="http://purl.org/dc/elements/1.1/"
   xmlns:cc="http://creativecommons.org/ns#"
   xmlns:rdf="http://www.w3.org/1999/02/22-rdf-syntax-ns#"
   xmlns:svg="http://www.w3.org/2000/svg"
   xmlns="http://www.w3.org/2000/svg"
   xmlns:sodipodi="http://sodipodi.sourceforge.net/DTD/sodipodi-0.dtd"
   xmlns:inkscape="http://www.inkscape.org/namespaces/inkscape"
   width="85mm"
   height="54mm"
   viewBox="0 0 85 54"
   id="svg4916"
   version="1.1"
   inkscape:version="0.91 r13725"
   sodipodi:docname="seasite.svg">
  <defs
     id="defs3" />
  <sodipodi:namedview
     id="base"
     pagecolor="#ffffff"
     bordercolor="#666666"
     borderopacity="1.0"
     inkscape:pageopacity="0.0"
     inkscape:pageshadow="2"
     inkscape:zoom="1.2"
     inkscape:cx="-33.75"
     inkscape:cy="90"
     inkscape:document-units="mm"
     inkscape:current-layer="layer1"
     showgrid="false"
     inkscape:window-width="1680"
     inkscape:window-height="993"
     inkscape:window-x="0"
     inkscape:window-y="0"
     inkscape:window-maximized="1" />
  <metadata
     id="metadata4920">
    <rdf:RDF>
      <cc:Work
         rdf:about="">
        <dc:format>image/svg+xml</dc:format>
        <dc:type
           rdf:resource="http://purl.org/dc/dcmitype/StillImage" />
        <dc:title></dc:title>
      </cc:Work>
    </rdf:RDF>
  </metadata>
  <g
     inkscape:label="Layer 1"
     inkscape:groupmode="layer"
     id="layer1">
    <g
       transform="matrix(0.23781638,0,0,0.23781638,-27.632783,-62.160378)"
       id="g3">
      <polyline
         style="fill:none;stroke:#009640;stroke-width:7.57270002;stroke-linecap:round;stroke-linejoin:round;stroke-miterlimit:10"
         stroke-miterlimit="10"
         points="   128.669,323.469 147.137,335.836 159.833,310.883 170.797,331.418 179.454,324.795 194.891,403.94 221.005,391.04 231.393,400.758    261.873,389.69 283.072,395.963 306.533,384.497 324.058,401.153 342.148,392.284 362.782,400.504 380.873,389.69 405.465,401.153    423.271,388.608 464.539,399.874  "
         id="polyline5" />
      <g
         id="g7">
        <path
           inkscape:connector-curvature="0"
           d="m 236.497,363.625 c 0,3.23 -0.752,6.133 -2.258,8.709 -1.505,2.572 -3.708,4.586 -6.608,6.045 -2.901,1.457 -6.341,2.184 -10.319,2.184 -4.77,0 -8.703,-0.994 -11.801,-2.984 -2.198,-1.436 -3.984,-3.346 -5.357,-5.738 -1.374,-2.393 -2.061,-4.717 -2.061,-6.977 0,-1.311 0.413,-2.434 1.236,-3.369 0.825,-0.934 1.875,-1.402 3.148,-1.402 1.033,0 1.906,0.365 2.621,1.092 0.714,0.73 1.324,1.811 1.829,3.242 0.615,1.703 1.28,3.123 1.996,4.264 0.713,1.141 1.718,2.082 3.016,2.82 1.296,0.744 3,1.115 5.11,1.115 2.901,0 5.258,-0.748 7.071,-2.242 1.813,-1.492 2.72,-3.357 2.72,-5.59 0,-1.773 -0.489,-3.213 -1.468,-4.318 -0.978,-1.104 -2.241,-1.949 -3.79,-2.531 -1.55,-0.584 -3.622,-1.203 -6.214,-1.859 -3.473,-0.896 -6.378,-1.945 -8.719,-3.15 -2.34,-1.201 -4.198,-2.84 -5.571,-4.918 -1.374,-2.076 -2.061,-4.654 -2.061,-7.738 0,-2.939 0.726,-5.551 2.176,-7.832 1.451,-2.283 3.548,-4.037 6.296,-5.264 2.748,-1.227 5.978,-1.84 9.692,-1.84 2.968,0 5.532,0.404 7.697,1.221 2.165,0.813 3.961,1.893 5.39,3.242 1.428,1.346 2.473,2.762 3.132,4.242 0.659,1.482 0.989,2.926 0.989,4.334 0,1.287 -0.412,2.447 -1.237,3.48 -0.824,1.031 -1.852,1.547 -3.083,1.547 -1.12,0 -1.972,-0.309 -2.555,-0.93 -0.582,-0.617 -1.214,-1.631 -1.895,-3.041 -0.879,-2.014 -1.934,-3.586 -3.165,-4.717 -1.23,-1.129 -3.209,-1.693 -5.934,-1.693 -2.527,0 -4.566,0.613 -6.115,1.84 -1.549,1.227 -2.324,2.701 -2.324,4.426 0,1.068 0.264,1.992 0.791,2.77 0.528,0.775 1.253,1.443 2.177,2.002 0.922,0.559 1.855,0.996 2.801,1.313 0.945,0.314 2.506,0.777 4.682,1.383 2.724,0.707 5.191,1.482 7.4,2.332 2.209,0.85 4.088,1.881 5.638,3.096 1.548,1.215 2.758,2.752 3.626,4.607 0.867,1.857 1.301,4.134 1.301,6.827 z"
           id="path9" />
        <path
           inkscape:connector-curvature="0"
           d="m 266.7,362.788 -17.604,0 c 0.022,2.26 0.434,4.25 1.237,5.975 0.802,1.725 1.867,3.023 3.197,3.898 1.33,0.873 2.796,1.311 4.401,1.311 1.077,0 2.06,-0.141 2.95,-0.42 0.891,-0.279 1.752,-0.715 2.588,-1.309 0.835,-0.596 1.604,-1.234 2.308,-1.916 0.704,-0.68 1.615,-1.602 2.736,-2.766 0.462,-0.438 1.121,-0.658 1.978,-0.658 0.923,0 1.67,0.279 2.242,0.838 0.571,0.563 0.856,1.35 0.856,2.369 0,0.898 -0.318,1.949 -0.955,3.152 -0.638,1.201 -1.6,2.354 -2.885,3.459 -1.286,1.105 -2.901,2.023 -4.846,2.75 -1.945,0.73 -4.182,1.092 -6.709,1.092 -5.779,0 -10.274,-1.818 -13.482,-5.461 -3.209,-3.645 -4.813,-8.584 -4.813,-14.828 0,-2.938 0.396,-5.664 1.186,-8.178 0.792,-2.514 1.946,-4.668 3.462,-6.467 1.517,-1.795 3.384,-3.172 5.604,-4.131 2.22,-0.961 4.681,-1.439 7.384,-1.439 3.516,0 6.532,0.818 9.05,2.457 2.516,1.639 4.399,3.76 5.653,6.357 1.252,2.6 1.879,5.244 1.879,7.941 0,2.5 -0.648,4.123 -1.946,4.863 -1.295,0.741 -3.119,1.111 -5.471,1.111 z m -17.603,-5.647 16.318,0 c -0.221,-3.398 -1.05,-5.941 -2.489,-7.629 -1.439,-1.689 -3.334,-2.533 -5.686,-2.533 -2.242,0 -4.083,0.855 -5.522,2.568 -1.44,1.713 -2.314,4.245 -2.621,7.594 z"
           id="path11" />
        <path
           inkscape:connector-curvature="0"
           d="m 311.082,373.608 -2.308,-6.705 -19.646,0 -2.308,6.85 c -0.901,2.672 -1.671,4.475 -2.308,5.41 -0.638,0.936 -1.681,1.4 -3.131,1.4 -1.231,0 -2.32,-0.496 -3.264,-1.49 -0.946,-0.998 -1.418,-2.127 -1.418,-3.389 0,-0.73 0.11,-1.48 0.33,-2.258 0.219,-0.779 0.581,-1.859 1.088,-3.244 l 12.361,-34.678 c 0.352,-0.996 0.774,-2.191 1.269,-3.588 0.495,-1.396 1.022,-2.555 1.583,-3.479 0.561,-0.922 1.297,-1.668 2.209,-2.24 0.911,-0.57 2.038,-0.855 3.379,-0.855 1.362,0 2.5,0.285 3.411,0.855 0.912,0.572 1.649,1.305 2.209,2.203 0.561,0.9 1.032,1.863 1.417,2.896 0.385,1.033 0.875,2.41 1.468,4.135 l 12.626,34.459 c 0.989,2.623 1.483,4.531 1.483,5.719 0,1.24 -0.468,2.373 -1.402,3.408 -0.934,1.031 -2.06,1.545 -3.378,1.545 -0.77,0 -1.429,-0.15 -1.979,-0.451 -0.55,-0.305 -1.01,-0.719 -1.384,-1.24 -0.374,-0.523 -0.775,-1.324 -1.204,-2.404 -0.426,-1.08 -0.794,-2.035 -1.103,-2.859 z m -19.383,-14.828 14.439,0 -7.285,-22.035 -7.154,22.035 z"
           id="path13" />
        <path
           inkscape:connector-curvature="0"
           d="m 360.682,363.625 c 0,3.23 -0.753,6.133 -2.259,8.709 -1.504,2.572 -3.708,4.586 -6.608,6.045 -2.901,1.457 -6.342,2.184 -10.318,2.184 -4.77,0 -8.703,-0.994 -11.801,-2.984 -2.198,-1.436 -3.984,-3.346 -5.357,-5.738 -1.374,-2.393 -2.061,-4.717 -2.061,-6.977 0,-1.311 0.412,-2.434 1.236,-3.369 0.824,-0.934 1.873,-1.402 3.148,-1.402 1.032,0 1.906,0.365 2.62,1.092 0.715,0.73 1.323,1.811 1.83,3.242 0.614,1.703 1.279,3.123 1.994,4.264 0.714,1.141 1.719,2.082 3.017,2.82 1.296,0.744 2.999,1.115 5.109,1.115 2.9,0 5.258,-0.748 7.071,-2.242 1.813,-1.492 2.719,-3.357 2.719,-5.59 0,-1.773 -0.489,-3.213 -1.467,-4.318 -0.978,-1.104 -2.241,-1.949 -3.791,-2.531 -1.549,-0.584 -3.621,-1.203 -6.214,-1.859 -3.473,-0.896 -6.379,-1.945 -8.719,-3.15 -2.341,-1.201 -4.198,-2.84 -5.57,-4.918 -1.374,-2.076 -2.062,-4.654 -2.062,-7.738 0,-2.939 0.725,-5.551 2.176,-7.832 1.45,-2.283 3.549,-4.037 6.296,-5.264 2.748,-1.227 5.978,-1.84 9.692,-1.84 2.967,0 5.531,0.404 7.696,1.221 2.165,0.813 3.962,1.893 5.391,3.242 1.429,1.346 2.473,2.762 3.132,4.242 0.66,1.482 0.989,2.926 0.989,4.334 0,1.287 -0.412,2.447 -1.236,3.48 -0.824,1.031 -1.852,1.547 -3.083,1.547 -1.121,0 -1.972,-0.309 -2.555,-0.93 -0.582,-0.617 -1.215,-1.631 -1.896,-3.041 -0.878,-2.014 -1.934,-3.586 -3.165,-4.717 -1.23,-1.129 -3.208,-1.693 -5.934,-1.693 -2.527,0 -4.564,0.613 -6.115,1.84 -1.548,1.227 -2.323,2.701 -2.323,4.426 0,1.068 0.264,1.992 0.791,2.77 0.528,0.775 1.253,1.443 2.176,2.002 0.924,0.559 1.856,0.996 2.802,1.313 0.944,0.314 2.506,0.777 4.682,1.383 2.725,0.707 5.192,1.482 7.4,2.332 2.209,0.85 4.088,1.881 5.637,3.096 1.55,1.215 2.758,2.752 3.627,4.607 0.869,1.857 1.303,4.134 1.303,6.827 z"
           id="path15" />
        <path
           inkscape:connector-curvature="0"
           d="m 375.197,345.778 0,28.74 c 0,1.99 -0.428,3.496 -1.285,4.518 -0.857,1.02 -1.946,1.527 -3.265,1.527 -1.319,0 -2.39,-0.52 -3.214,-1.566 -0.823,-1.041 -1.237,-2.533 -1.237,-4.479 l 0,-28.449 c 0,-1.967 0.414,-3.447 1.237,-4.447 0.824,-0.994 1.895,-1.49 3.214,-1.49 1.318,0 2.407,0.496 3.265,1.49 0.858,1 1.285,2.382 1.285,4.156 z"
           id="path17" />
        <path
           inkscape:connector-curvature="0"
           d="m 413.475,335.176 -10.683,0 0,38.795 c 0,2.234 -0.448,3.893 -1.35,4.973 -0.902,1.08 -2.066,1.619 -3.495,1.619 -1.451,0 -2.633,-0.543 -3.544,-1.637 -0.911,-1.096 -1.368,-2.744 -1.368,-4.955 l 0,-38.795 -8.949,0 c -1.67,0 -2.912,-0.406 -3.727,-1.219 -0.813,-0.816 -1.218,-1.889 -1.218,-3.227 0,-1.383 0.422,-2.475 1.27,-3.277 0.845,-0.801 2.071,-1.203 3.675,-1.203 l 29.389,0 c 1.69,0 2.95,0.416 3.773,1.24 0.824,0.826 1.236,1.906 1.236,3.24 0,1.338 -0.417,2.41 -1.253,3.227 -0.835,0.813 -2.087,1.219 -3.756,1.219 z"
           id="path19" />
        <path
           inkscape:connector-curvature="0"
           d="m 435.87,362.788 -17.602,0 c 0.02,2.26 0.432,4.25 1.234,5.975 0.802,1.725 1.868,3.023 3.198,3.898 1.328,0.873 2.796,1.311 4.399,1.311 1.077,0 2.062,-0.141 2.951,-0.42 0.891,-0.279 1.753,-0.715 2.589,-1.309 0.835,-0.596 1.603,-1.234 2.308,-1.916 0.701,-0.68 1.615,-1.602 2.735,-2.766 0.462,-0.438 1.12,-0.658 1.979,-0.658 0.924,0 1.669,0.279 2.242,0.838 0.57,0.563 0.857,1.35 0.857,2.369 0,0.898 -0.32,1.949 -0.957,3.152 -0.639,1.201 -1.6,2.354 -2.884,3.459 -1.285,1.105 -2.902,2.023 -4.848,2.75 -1.944,0.73 -4.18,1.092 -6.708,1.092 -5.781,0 -10.273,-1.818 -13.483,-5.461 -3.21,-3.645 -4.812,-8.584 -4.812,-14.828 0,-2.938 0.396,-5.664 1.187,-8.178 0.791,-2.514 1.944,-4.668 3.461,-6.467 1.518,-1.795 3.386,-3.172 5.604,-4.131 2.219,-0.961 4.681,-1.439 7.383,-1.439 3.518,0 6.534,0.818 9.049,2.457 2.517,1.639 4.401,3.76 5.655,6.357 1.253,2.6 1.878,5.244 1.878,7.941 0,2.5 -0.648,4.123 -1.945,4.863 -1.294,0.741 -3.117,1.111 -5.47,1.111 z m -17.601,-5.647 16.317,0 c -0.222,-3.398 -1.051,-5.941 -2.49,-7.629 -1.439,-1.689 -3.336,-2.533 -5.687,-2.533 -2.24,0 -4.082,0.855 -5.521,2.568 -1.439,1.713 -2.312,4.245 -2.619,7.594 z"
           id="path21" />
      </g>
      <path
         style="fill:#009640"
         inkscape:connector-curvature="0"
         d="m 370.681,336.129 c -1.366,0 -2.536,-0.465 -3.507,-1.393 -0.973,-0.926 -1.458,-2.238 -1.458,-3.936 0,-1.533 0.501,-2.801 1.495,-3.793 0.995,-0.994 2.15,-1.49 3.47,-1.49 1.272,0 2.397,0.453 3.38,1.352 0.982,0.9 1.474,2.211 1.474,3.932 0,1.672 -0.479,2.977 -1.438,3.916 -0.959,0.942 -2.098,1.412 -3.416,1.412 z"
         id="path23" />
    </g>
  </g>
</svg>
